<svg width="17" height="16" viewBox="0 0 17 16" fill="none" xmlns="http://www.w3.org/2000/svg">
<g id="Icon Asset">
<path id="Vector" d="M16.3206 8.53119C16.3353 8.50879 16.3482 8.48525 16.359 8.46079C16.3769 8.43087 16.393 8.39988 16.407 8.36799C16.407 8.33599 16.4294 8.30399 16.439 8.27199C16.448 8.24468 16.4555 8.2169 16.4614 8.18879C16.4871 8.06422 16.4871 7.93575 16.4614 7.81119C16.4555 7.78307 16.448 7.7553 16.439 7.72799C16.439 7.69599 16.4198 7.66399 16.407 7.63199C16.393 7.60009 16.3769 7.5691 16.359 7.53919C16.3482 7.51472 16.3353 7.49118 16.3206 7.46879C16.2854 7.41556 16.2447 7.36621 16.199 7.32159L9.95904 1.07839C9.86974 0.989297 9.76377 0.91867 9.64718 0.870536C9.53058 0.822401 9.40565 0.797704 9.27951 0.797852C9.15337 0.798001 9.0285 0.822993 8.91202 0.871402C8.79554 0.91981 8.68973 0.990687 8.60064 1.07999C8.51155 1.16928 8.44093 1.27526 8.39279 1.39185C8.34466 1.50845 8.31996 1.63338 8.32011 1.75952C8.32041 2.01427 8.4219 2.25846 8.60224 2.43839L13.2038 7.03999H1.47904C1.35297 7.03999 1.22814 7.06482 1.11167 7.11306C0.995194 7.16131 0.889365 7.23202 0.80022 7.32116C0.711076 7.41031 0.640363 7.51614 0.592119 7.63261C0.543874 7.74908 0.519043 7.87392 0.519043 7.99999C0.519043 8.12606 0.543874 8.25089 0.592119 8.36736C0.640363 8.48384 0.711076 8.58966 0.80022 8.67881C0.889365 8.76795 0.995194 8.83867 1.11167 8.88691C1.22814 8.93516 1.35297 8.95999 1.47904 8.95999H13.2038L8.60224 13.5616C8.4219 13.7415 8.32041 13.9857 8.32011 14.2405C8.31981 14.4952 8.42072 14.7396 8.60064 14.92C8.78057 15.1003 9.02476 15.2018 9.27951 15.2021C9.53426 15.2024 9.7787 15.1015 9.95904 14.9216L16.199 8.67839C16.2447 8.63376 16.2854 8.58441 16.3206 8.53119Z" fill="white"/>
</g>
</svg>
