<svg width="17" height="16" viewBox="0 0 17 16" fill="none" xmlns="http://www.w3.org/2000/svg">
<g id="Icon Asset">
<path id="Vector" d="M15.5175 7.03999H3.79274L8.39434 2.43839C8.57469 2.25846 8.67618 2.01427 8.67648 1.75952C8.67678 1.50477 8.57587 1.26033 8.39594 1.07999C8.21602 0.899639 7.97183 0.798152 7.71708 0.797852C7.46233 0.797552 7.21789 0.898463 7.03754 1.07839L0.794344 7.32159C0.749729 7.36628 0.710035 7.41563 0.675944 7.46879C0.661265 7.49118 0.648423 7.51472 0.637544 7.53919C0.618588 7.56904 0.601489 7.60003 0.586344 7.63199C0.586344 7.66399 0.567144 7.69599 0.557544 7.72799C0.547554 7.75525 0.539009 7.78302 0.531944 7.81119C0.509534 7.93606 0.509534 8.06392 0.531944 8.18879C0.539009 8.21695 0.547554 8.24472 0.557544 8.27199C0.557544 8.30399 0.573544 8.33599 0.586344 8.36799C0.601489 8.39994 0.618588 8.43093 0.637544 8.46079C0.648423 8.48525 0.661265 8.50879 0.675944 8.53119C0.710035 8.58434 0.749729 8.63369 0.794344 8.67839L7.03754 14.9216C7.21789 15.1015 7.46233 15.2024 7.71708 15.2021C7.97183 15.2018 8.21602 15.1003 8.39594 14.92C8.57587 14.7396 8.67678 14.4952 8.67648 14.2405C8.67618 13.9857 8.57469 13.7415 8.39434 13.5616L3.79274 8.95999H15.5175C15.6436 8.95999 15.7684 8.93516 15.8849 8.88691C16.0014 8.83867 16.1072 8.76795 16.1964 8.67881C16.2855 8.58966 16.3562 8.48384 16.4045 8.36736C16.4527 8.25089 16.4775 8.12606 16.4775 7.99999C16.4775 7.87392 16.4527 7.74908 16.4045 7.63261C16.3562 7.51614 16.2855 7.41031 16.1964 7.32116C16.1072 7.23202 16.0014 7.16131 15.8849 7.11306C15.7684 7.06482 15.6436 7.03999 15.5175 7.03999Z" fill="white"/>
</g>
</svg>
