<svg width="32" height="32" viewBox="0 0 32 32" fill="none" xmlns="http://www.w3.org/2000/svg">
<g id="Icons / release-notes">
<path id="outline" fill-rule="evenodd" clip-rule="evenodd" d="M22.8906 1.92713C23.2991 1.31442 24.1269 1.14886 24.7396 1.55733C25.3523 1.9658 25.5179 2.79362 25.1094 3.40633L22.4428 7.40633C22.0343 8.01903 21.2065 8.1846 20.5938 7.77613C19.9811 7.36766 19.8155 6.53983 20.224 5.92713L22.8906 1.92713ZM26.6667 17.3334C25.9303 17.3334 25.3334 16.7364 25.3334 16.0001C25.3334 15.2637 25.9303 14.6667 26.6667 14.6667H30.6667C31.4031 14.6667 32 15.2637 32 16.0001C32 16.7364 31.4031 17.3334 30.6667 17.3334H26.6667ZM11.3334 30.6669C9.10407 30.6669 7.23985 29.1037 6.77706 27.0136L9.3668 26.3662C9.53872 27.296 10.3538 28.0002 11.3334 28.0002C12.438 28.0002 13.3334 27.1048 13.3334 26.0002C13.3334 25.7902 13.301 25.5878 13.241 25.3976L15.8308 24.7502C15.9411 25.148 16.0001 25.5672 16.0001 26.0002C16.0001 28.5775 13.9107 30.6669 11.3334 30.6669ZM26.073 11.7761C25.4603 12.1846 24.6324 12.019 24.224 11.4063C23.8155 10.7936 23.9811 9.9658 24.5938 9.55733L28.5938 6.89066C29.2065 6.48219 30.0343 6.64776 30.4428 7.26046C30.8512 7.87317 30.6857 8.70099 30.073 9.10946L26.073 11.7761ZM1.40178 27.0884L0.0684488 23.0884C-0.0846759 22.629 0.0232864 22.1227 0.350488 21.7657L15.0172 5.76575C15.6351 5.09167 16.7327 5.22547 17.1706 6.02825L25.1706 20.6949C25.5884 21.461 25.17 22.4153 24.3234 22.6269L2.99007 27.9602C2.31416 28.1292 1.6221 27.7493 1.40178 27.0884ZM3.54116 25.0737L22.0038 20.4581L15.7226 8.94255L2.84636 22.9894L3.54116 25.0737Z" fill="#201139"/>
</g>
</svg>
